<mxfile host="app.diagrams.net" modified="2024-06-02T04:23:40.552Z" agent="Mozilla/5.0 (Linux; Android 10; K) AppleWebKit/537.36 (KHTML, like Gecko) Chrome/125.0.0.0 Mobile Safari/537.36" version="24.4.13" etag="jyFuUEoKr0hONuhyzPyc" type="github">
  <diagram name="Page-1" id="NLNpBCzeBc_PDUIY4jvV">
    <mxGraphModel>
      <root>
        <mxCell id="0" />
        <mxCell id="1" parent="0" />
      </root>
    </mxGraphModel>
  </diagram>
</mxfile>
